<svg width="132" height="115" viewBox="0 0 132 115" fill="none" xmlns="http://www.w3.org/2000/svg">
<path d="M91.5688 79.2845V0H107.876L115.174 37.9755V0H130.49V79.2845H114.994L107.065 39.6423V79.2845H91.5688Z" fill="#111111"/>
<path d="M46.0713 79.2845V0H67.8745C73.5806 0 77.8752 1.5917 80.7583 4.77509C83.6413 7.92845 85.0829 12.5534 85.0829 18.6499V55.7695C85.0829 63.2775 83.7615 69.0736 81.1187 73.158C78.5059 77.2423 73.911 79.2845 67.334 79.2845H46.0713ZM62.0183 65.2746H64.7662C67.6793 65.2746 69.1359 63.8631 69.1359 61.0401V20.1365C69.1359 17.4936 68.7755 15.7968 68.0547 15.046C67.364 14.2652 65.9375 13.8748 63.7752 13.8748H62.0183V65.2746Z" fill="#111111"/>
<path d="M1.92383 79.2845V0H23.4117C29.1779 0 33.3674 1.4115 35.9801 4.23451C38.623 7.02749 39.9444 11.6524 39.9444 18.1093V21.578C39.9444 25.302 39.2686 28.3202 37.9172 30.6327C36.5958 32.9451 34.5686 34.4617 31.8357 35.1825C35.4095 36.0835 37.7971 38.2007 38.9984 41.5343C40.2297 44.8378 40.8453 48.8771 40.8453 53.6522C40.8453 58.7877 40.3648 63.2775 39.4038 67.1216C38.4428 70.9657 36.7009 73.9538 34.1782 76.0861C31.6555 78.2184 28.0667 79.2845 23.4117 79.2845H1.92383ZM17.4204 29.8668H20.6638C22.1354 29.8668 23.0814 29.2962 23.5018 28.155C23.9223 27.0138 24.1325 25.6473 24.1325 24.0556V16.0821C24.1325 13.5294 23.0063 12.2531 20.7539 12.2531H17.4204V29.8668ZM18.997 65.3196C23.1114 65.3196 25.1686 63.3676 25.1686 59.4634V49.5528C25.1686 47.3004 24.8232 45.5285 24.1325 44.2372C23.4718 42.9157 22.2105 42.255 20.3485 42.255H17.4204V65.2295C18.0811 65.2896 18.6066 65.3196 18.997 65.3196Z" fill="#111111"/>
<path d="M124.496 106.889C123.801 106.889 123.284 106.643 122.945 106.152C122.623 105.643 122.462 105.033 122.462 104.321C122.462 103.66 122.59 102.973 122.844 102.262C123.115 101.482 123.488 100.77 123.962 100.126C124.454 99.4817 124.988 98.9647 125.564 98.5748C126.158 98.168 126.742 97.9646 127.319 97.9646C128.014 97.9646 128.522 98.2019 128.844 98.6765C129.183 99.1511 129.353 99.7529 129.353 100.482C129.353 100.99 129.268 101.524 129.098 102.084C128.929 102.643 128.7 103.194 128.412 103.736C128.632 103.957 128.946 104.067 129.353 104.067C129.827 104.067 130.234 103.914 130.573 103.609C130.912 103.304 131.243 102.762 131.565 101.982C131.768 101.982 131.87 102.058 131.87 102.211C131.548 102.99 131.175 103.567 130.751 103.94C130.344 104.296 129.819 104.465 129.175 104.448C128.785 104.448 128.463 104.338 128.209 104.118C127.734 104.897 127.166 105.558 126.505 106.101C125.861 106.626 125.191 106.889 124.496 106.889ZM124.852 106.33C125.242 106.33 125.632 106.169 126.022 105.847C126.412 105.508 126.768 105.126 127.09 104.702C127.412 104.279 127.641 103.914 127.776 103.609C127.505 103.118 127.344 102.753 127.293 102.516C127.259 102.262 127.242 102.075 127.242 101.956C127.242 101.634 127.327 101.389 127.497 101.219C127.666 101.05 127.836 100.965 128.005 100.965C128.242 100.965 128.446 101.067 128.615 101.27C128.649 101.083 128.675 100.914 128.692 100.761C128.709 100.592 128.717 100.431 128.717 100.278C128.717 99.8376 128.632 99.4817 128.463 99.2105C128.31 98.9223 128.064 98.7782 127.725 98.7782C127.37 98.7782 126.997 98.9308 126.607 99.2359C126.217 99.541 125.844 99.9478 125.488 100.456C125.149 100.965 124.852 101.533 124.598 102.16C124.378 102.685 124.208 103.185 124.09 103.66C123.971 104.118 123.912 104.541 123.912 104.931C123.912 105.355 123.988 105.694 124.14 105.948C124.293 106.202 124.53 106.33 124.852 106.33Z" fill="#111111"/>
<path d="M119.213 106.889C118.586 106.889 118.145 106.712 117.891 106.356C117.636 105.983 117.509 105.559 117.509 105.084C117.509 104.83 117.535 104.576 117.586 104.322C117.653 104.05 117.73 103.805 117.814 103.584L119.518 99.2364C119.569 99.1008 119.594 98.9821 119.594 98.8804C119.594 98.7109 119.552 98.5669 119.467 98.4482C119.382 98.3126 119.323 98.2194 119.289 98.1685L120.687 98.1177C120.942 98.1007 121.12 98.1346 121.221 98.2194C121.34 98.2872 121.399 98.3719 121.399 98.4736C121.399 98.5753 121.34 98.7618 121.221 99.033C121.052 99.4398 120.823 99.9483 120.535 100.559C120.247 101.169 119.959 101.796 119.67 102.44C119.399 103.084 119.162 103.686 118.959 104.245C118.772 104.805 118.679 105.237 118.679 105.542C118.679 105.762 118.73 105.949 118.831 106.101C118.95 106.254 119.145 106.33 119.416 106.33C119.772 106.33 120.12 106.195 120.459 105.923C120.815 105.635 121.145 105.271 121.45 104.83C121.755 104.389 122.035 103.915 122.289 103.406C122.56 102.898 122.789 102.423 122.976 101.982C123.179 101.982 123.281 102.059 123.281 102.211C123.111 102.635 122.891 103.118 122.62 103.66C122.349 104.203 122.035 104.72 121.679 105.211C121.34 105.686 120.959 106.084 120.535 106.406C120.128 106.728 119.687 106.889 119.213 106.889ZM121.476 96.5413C121.255 96.5413 121.06 96.4565 120.891 96.287C120.738 96.1175 120.662 95.9141 120.662 95.6768C120.662 95.3887 120.781 95.1344 121.018 94.9141C121.255 94.6768 121.518 94.5581 121.806 94.5581C122.044 94.5581 122.247 94.6344 122.416 94.7869C122.586 94.9395 122.671 95.1344 122.671 95.3717C122.671 95.6768 122.552 95.948 122.315 96.1853C122.077 96.4226 121.798 96.5413 121.476 96.5413Z" fill="#111111"/>
<path d="M114.864 106.889C114.287 106.889 113.863 106.694 113.592 106.304C113.321 105.914 113.185 105.456 113.185 104.931C113.185 104.778 113.194 104.626 113.211 104.473C113.228 104.304 113.262 104.134 113.313 103.965C113.075 104.338 112.796 104.753 112.474 105.211C112.168 105.651 111.812 106.041 111.406 106.38C111.016 106.702 110.575 106.863 110.084 106.863C109.863 106.863 109.609 106.812 109.321 106.711C109.05 106.609 108.804 106.414 108.583 106.126C108.38 105.838 108.278 105.414 108.278 104.855C108.278 104.126 108.439 103.355 108.761 102.541C109.083 101.727 109.524 100.965 110.084 100.253C110.643 99.5237 111.279 98.9389 111.99 98.4982C112.702 98.0406 113.44 97.8117 114.202 97.8117C114.813 97.8117 115.389 97.9728 115.931 98.2948C116.186 97.8202 116.457 97.2948 116.745 96.7184C117.033 96.1252 117.321 95.5404 117.609 94.9641C117.898 94.3878 118.152 93.8623 118.372 93.3877C118.593 92.8961 118.762 92.5232 118.881 92.269C119.135 91.6757 119.372 91.3028 119.593 91.1503C119.83 90.9807 120.11 90.896 120.432 90.896C120.618 90.896 120.822 90.9214 121.042 90.9723C121.279 91.0062 121.508 91.0146 121.728 90.9977C121.644 91.0825 121.449 91.3621 121.144 91.8367C120.839 92.3114 120.466 92.93 120.025 93.6928C119.584 94.4386 119.11 95.2607 118.601 96.1591C118.11 97.0574 117.618 97.9812 117.126 98.9305C116.652 99.8627 116.211 100.761 115.804 101.626C115.397 102.49 115.075 103.253 114.838 103.914C114.601 104.575 114.482 105.075 114.482 105.414C114.482 105.634 114.533 105.829 114.635 105.999C114.736 106.151 114.906 106.228 115.143 106.228C115.465 106.228 115.796 106.067 116.135 105.745C116.474 105.422 116.796 105.024 117.101 104.55C117.423 104.058 117.703 103.583 117.94 103.126C118.194 102.651 118.381 102.27 118.499 101.982C118.703 101.982 118.804 102.058 118.804 102.21C118.652 102.566 118.449 103.007 118.194 103.532C117.94 104.058 117.643 104.575 117.304 105.083C116.965 105.592 116.584 106.024 116.16 106.38C115.753 106.719 115.321 106.889 114.864 106.889ZM110.262 106.126C110.499 106.126 110.795 105.999 111.151 105.745C111.507 105.473 111.889 105.05 112.296 104.473C112.77 103.795 113.313 102.948 113.923 101.931C114.533 100.914 115.135 99.8373 115.728 98.7016C115.609 98.5999 115.482 98.5237 115.347 98.4728C115.211 98.422 115.025 98.3965 114.787 98.3965C114.397 98.3965 113.965 98.566 113.491 98.905C113.033 99.2271 112.567 99.6509 112.092 100.176C111.634 100.702 111.211 101.27 110.821 101.88C110.448 102.49 110.143 103.083 109.906 103.66C109.685 104.219 109.575 104.702 109.575 105.109C109.575 105.787 109.804 106.126 110.262 106.126Z" fill="#111111"/>
<path d="M100.716 106.889C100.529 106.889 100.3 106.847 100.029 106.762C99.7749 106.677 99.5461 106.525 99.3427 106.304C99.1562 106.067 99.063 105.719 99.063 105.262C99.063 104.821 99.2071 104.313 99.4952 103.736C99.7834 103.16 100.038 102.651 100.258 102.211C100.072 102.211 99.9783 102.134 99.9783 101.982C99.9953 101.931 100.072 101.77 100.207 101.499C100.343 101.228 100.504 100.906 100.69 100.533C100.877 100.16 101.055 99.8038 101.224 99.4648C101.411 99.1088 101.555 98.8376 101.656 98.6512C101.86 98.2783 102.182 98.0918 102.623 98.0918H104.199C103.911 98.3122 103.648 98.5579 103.411 98.8291C103.19 99.0834 102.911 99.558 102.572 100.253C102.572 100.253 102.512 100.372 102.394 100.609C102.275 100.846 102.123 101.151 101.936 101.524C101.767 101.88 101.589 102.245 101.402 102.618C101.233 102.99 101.089 103.304 100.97 103.558C100.75 104.033 100.605 104.414 100.538 104.702C100.47 104.974 100.436 105.228 100.436 105.465C100.436 106.025 100.622 106.304 100.995 106.304C101.402 106.304 101.894 105.974 102.47 105.313C102.945 104.753 103.411 104.084 103.868 103.304C104.326 102.524 104.758 101.719 105.165 100.889C105.589 100.058 105.962 99.3122 106.284 98.6512C106.47 98.2783 106.801 98.0918 107.275 98.0918H108.674C108.301 98.3969 107.92 98.8546 107.53 99.4648C107.157 100.075 106.742 100.855 106.284 101.804C106.165 102.058 106.013 102.38 105.826 102.77C105.64 103.16 105.47 103.575 105.318 104.016C105.182 104.457 105.114 104.897 105.114 105.338C105.114 105.931 105.326 106.228 105.75 106.228C106.326 106.228 106.886 105.83 107.428 105.033C107.97 104.236 108.504 103.219 109.03 101.982C109.165 101.982 109.242 101.99 109.259 102.007C109.293 102.024 109.318 102.092 109.335 102.211C109.148 102.668 108.92 103.168 108.648 103.711C108.394 104.236 108.098 104.745 107.759 105.236C107.436 105.728 107.072 106.126 106.665 106.431C106.275 106.736 105.843 106.889 105.369 106.889C104.945 106.889 104.597 106.736 104.326 106.431C104.055 106.109 103.919 105.66 103.919 105.084C103.919 104.626 104.004 104.135 104.174 103.609C103.885 104.118 103.555 104.626 103.182 105.135C102.809 105.643 102.411 106.067 101.987 106.406C101.563 106.728 101.139 106.889 100.716 106.889Z" fill="#111111"/>
<path d="M100.127 93.4636C99.9064 93.7857 99.6606 94.1925 99.3894 94.684C99.1182 95.1756 98.8639 95.6502 98.6266 96.1079C98.4063 96.5655 98.2368 96.913 98.1181 97.1503H100.457C100.457 97.2181 100.423 97.3283 100.356 97.4809C100.305 97.6334 100.195 97.7436 100.025 97.8114H97.813C97.6096 98.269 97.3723 98.8199 97.1011 99.464C96.8469 100.108 96.5926 100.778 96.3383 101.473C96.101 102.168 95.8976 102.82 95.7281 103.43C95.5756 104.024 95.4993 104.507 95.4993 104.88C95.4993 105.388 95.5671 105.77 95.7027 106.024C95.8383 106.261 96.0841 106.38 96.44 106.38C96.8977 106.38 97.3384 106.159 97.7622 105.719C98.1859 105.261 98.5843 104.693 98.9572 104.015C99.347 103.337 99.686 102.659 99.9742 101.981C100.178 101.981 100.279 102.057 100.279 102.21C100.093 102.668 99.864 103.168 99.5928 103.71C99.3216 104.253 99.008 104.778 98.6521 105.286C98.3131 105.778 97.9232 106.185 97.4825 106.507C97.0587 106.812 96.5841 106.965 96.0587 106.965C95.3468 106.965 94.8637 106.77 94.6094 106.38C94.3552 105.973 94.228 105.456 94.228 104.829C94.228 104.371 94.3128 103.82 94.4823 103.176C94.6518 102.515 94.8552 101.837 95.0925 101.142C95.3468 100.447 95.5925 99.8031 95.8298 99.2098C96.0671 98.5996 96.2536 98.1334 96.3892 97.8114H94.762C94.762 97.6758 94.8213 97.5317 94.9399 97.3792C95.0586 97.2266 95.1857 97.1503 95.3213 97.1503H96.6689C96.8045 96.8791 96.957 96.5401 97.1265 96.1333C97.313 95.7265 97.5588 95.2773 97.8639 94.7857C98.1181 94.3789 98.4402 94.0569 98.83 93.8196C99.2369 93.5823 99.6691 93.4636 100.127 93.4636Z" fill="#111111"/>
<path d="M80.1778 109.228C78.5166 109.228 76.9911 108.983 75.6012 108.491C74.2282 107.999 73.1179 107.279 72.2704 106.33C71.4229 105.364 70.9568 104.177 70.872 102.77C70.8381 102.194 70.9313 101.558 71.1517 100.863C71.3721 100.168 71.6772 99.4818 72.067 98.8038C72.4738 98.1089 72.9484 97.4902 73.4908 96.9478C74.0502 96.3884 74.6435 95.9646 75.2706 95.6765C75.3215 95.6426 75.3978 95.6172 75.4995 95.6002C75.6181 95.5833 75.7029 95.5748 75.7537 95.5748C75.8554 95.5748 75.9063 95.6002 75.9063 95.6511C75.9063 95.7358 75.7791 95.8714 75.5249 96.0579C74.813 96.6172 74.2282 97.2613 73.7705 97.9902C73.2959 98.7191 72.94 99.4988 72.7027 100.329C72.4654 101.16 72.3467 101.999 72.3467 102.846C72.3467 103.847 72.5586 104.711 72.9823 105.44C73.423 106.152 74.0078 106.737 74.7367 107.194C75.4656 107.669 76.2961 108.016 77.2284 108.237C78.1607 108.457 79.1353 108.567 80.1523 108.567C81.288 108.567 82.4067 108.44 83.5085 108.186C84.6272 107.932 85.6442 107.567 86.5596 107.093C87.9664 106.347 89.0767 105.423 89.8903 104.321C90.7209 103.219 91.1362 102.126 91.1362 101.041C91.1362 100.465 91.009 99.9141 90.7548 99.3886C90.5175 98.8632 90.1276 98.3885 89.5852 97.9648C89.1784 97.6427 88.6784 97.3376 88.0851 97.0495C87.5088 96.7613 86.8901 96.4816 86.229 96.2104C85.5849 95.9392 84.9493 95.668 84.3221 95.3968C83.695 95.1087 83.1441 94.8035 82.6695 94.4815C81.9914 94.0238 81.4914 93.5323 81.1694 93.0068C80.8643 92.4813 80.7117 91.9559 80.7117 91.4304C80.7117 90.8033 80.8897 90.193 81.2456 89.5998C81.6185 89.0065 82.1186 88.4726 82.7457 87.998C83.3899 87.5064 84.1102 87.125 84.9069 86.8538C85.6019 86.6165 86.3562 86.4301 87.1698 86.2945C88.0004 86.1589 88.814 86.0911 89.6106 86.0911C90.2717 86.0911 90.8989 86.1419 91.4921 86.2436C92.1023 86.3284 92.6363 86.4894 93.0939 86.7267C93.6702 86.9979 94.111 87.3623 94.4161 87.82C94.7212 88.2607 94.8737 88.7268 94.8737 89.2184C94.8737 89.8964 94.5686 90.4897 93.9584 90.9982C93.738 91.1677 93.4923 91.3287 93.2211 91.4813C92.9499 91.6169 92.6278 91.7355 92.2549 91.8372C92.1871 91.8542 92.1108 91.8627 92.0261 91.8627C91.8227 91.8627 91.721 91.8033 91.721 91.6847C91.721 91.6169 91.7718 91.5491 91.8735 91.4813C91.9922 91.3965 92.1617 91.3457 92.382 91.3287C92.8905 91.2609 93.2719 91.066 93.5262 90.7439C93.7974 90.4219 93.933 90.049 93.933 89.6252C93.933 89.1845 93.7804 88.7523 93.4753 88.3285C93.1872 87.8878 92.738 87.5234 92.1278 87.2352C91.5175 86.9301 90.7378 86.7776 89.7886 86.7776C89.2462 86.7776 88.6445 86.8369 87.9834 86.9555C87.3393 87.0742 86.6358 87.2691 85.8731 87.5403C84.9408 87.8624 84.1611 88.337 83.5339 88.9641C82.9237 89.5913 82.6186 90.2609 82.6186 90.9728C82.6186 91.4135 82.7627 91.8627 83.0508 92.3203C83.356 92.761 83.839 93.1848 84.5001 93.5916C85.0595 93.9306 85.6951 94.2696 86.407 94.6086C87.1189 94.9307 87.8393 95.2612 88.5682 95.6002C89.2971 95.9223 89.9581 96.2698 90.5514 96.6427C91.4836 97.219 92.1532 97.8377 92.56 98.4987C92.9668 99.1598 93.1702 99.8378 93.1702 100.533C93.1702 101.346 92.9244 102.168 92.4329 102.999C91.9583 103.813 91.3311 104.584 90.5514 105.313C89.7717 106.025 88.9157 106.66 87.9834 107.22C86.8986 107.864 85.6697 108.355 84.2967 108.694C82.9407 109.05 81.5677 109.228 80.1778 109.228Z" fill="#111111"/>
<path d="M62.6143 106.965C61.9872 106.965 61.521 106.778 61.2159 106.406C60.9278 106.016 60.7837 105.558 60.7837 105.033C60.7837 104.49 60.86 103.931 61.0125 103.355C61.1651 102.778 61.3007 102.295 61.4193 101.905C61.6905 100.956 62.0295 99.9475 62.4364 98.8796C62.8601 97.7948 63.3178 96.7354 63.8093 95.7014C64.3178 94.6505 64.8179 93.7098 65.3094 92.8792C65.6993 92.2181 66.1146 91.7266 66.5553 91.4045C67.0129 91.0655 67.4113 90.896 67.7503 90.896C68.0215 90.896 68.2334 90.9977 68.3859 91.2011C68.5554 91.3876 68.6402 91.6757 68.6402 92.0656C68.6402 92.3368 68.5893 92.6588 68.4876 93.0317C68.4029 93.4046 68.2503 93.8284 68.03 94.303C67.4367 95.6251 66.7248 96.9473 65.8942 98.2694C65.0806 99.5915 64.0466 100.829 62.7923 101.982C62.5889 102.456 62.4194 102.965 62.2838 103.507C62.1482 104.049 62.0804 104.49 62.0804 104.829C62.0804 105.88 62.4363 106.406 63.1483 106.406C63.6907 106.406 64.2924 106.016 64.9535 105.236C65.6145 104.439 66.2417 103.355 66.835 101.982C66.9028 101.982 66.9706 101.998 67.0384 102.032C67.1062 102.049 67.1401 102.109 67.1401 102.21C66.9536 102.668 66.7163 103.177 66.4282 103.736C66.157 104.278 65.8349 104.795 65.462 105.287C65.106 105.778 64.6907 106.185 64.2161 106.507C63.7415 106.812 63.2076 106.965 62.6143 106.965ZM62.9957 101.168C63.6059 100.541 64.1992 99.8204 64.7755 99.0067C65.3518 98.1762 65.8857 97.3202 66.3773 96.4388C66.8858 95.5404 67.3096 94.6929 67.6486 93.8962C67.7672 93.642 67.8605 93.3623 67.9283 93.0572C68.013 92.7521 68.0554 92.4978 68.0554 92.2944C68.0554 92.0571 67.9961 91.9384 67.8774 91.9384C67.8096 91.9384 67.7079 92.0062 67.5723 92.1418C67.4367 92.2605 67.2587 92.4724 67.0384 92.7775C66.7163 93.2012 66.3604 93.7776 65.9705 94.5064C65.5976 95.2353 65.2162 96.015 64.8263 96.8456C64.4365 97.6761 64.0805 98.4813 63.7585 99.261C63.4364 100.024 63.1822 100.659 62.9957 101.168Z" fill="#111111"/>
<path d="M57.823 106.965C57.4332 106.965 57.0857 106.855 56.7806 106.635C56.4924 106.414 56.3484 105.965 56.3484 105.287C56.3484 104.999 56.3653 104.728 56.3992 104.474C56.4501 104.219 56.5094 103.948 56.5772 103.66C56.4246 103.914 56.2128 104.228 55.9415 104.601C55.6703 104.974 55.3652 105.338 55.0262 105.694C54.7042 106.05 54.3652 106.347 54.0092 106.584C53.6702 106.821 53.3481 106.94 53.043 106.94C52.6023 106.94 52.2464 106.745 51.9752 106.355C51.704 105.948 51.5684 105.423 51.5684 104.779C51.5684 104.084 51.7294 103.338 52.0514 102.541C52.3735 101.745 52.8142 100.982 53.3736 100.253C53.9329 99.524 54.577 98.9308 55.3059 98.4731C56.0348 98.0155 56.7975 97.7866 57.5942 97.7866C57.9841 97.7866 58.357 97.8544 58.7129 97.99C59.0689 98.1087 59.3825 98.3121 59.6537 98.6002C59.7723 98.7189 59.8317 98.8545 59.8317 99.007C59.8317 99.1087 59.7893 99.1935 59.7045 99.2613C59.6198 99.3291 59.5096 99.3461 59.374 99.3122C59.1875 98.7189 58.7892 98.4223 58.179 98.4223C57.8908 98.4223 57.5603 98.5155 57.1874 98.7019C56.7297 98.9392 56.2382 99.3206 55.7127 99.8461C55.2042 100.355 54.7211 100.939 54.2635 101.6C53.8228 102.245 53.4583 102.897 53.1702 103.558C52.882 104.219 52.7379 104.821 52.7379 105.363C52.7379 105.923 52.9498 106.202 53.3736 106.202C53.7465 106.202 54.1279 106.024 54.5177 105.669C54.9245 105.313 55.3059 104.872 55.6619 104.346C56.0348 103.804 56.3738 103.27 56.6789 102.745C56.984 102.219 57.2213 101.795 57.3908 101.473C57.6451 101.016 57.8824 100.634 58.1027 100.329C58.3231 100.024 58.6367 99.8715 59.0435 99.8715C59.2299 99.8715 59.4164 99.8969 59.6028 99.9478C59.7893 99.9986 59.9842 100.007 60.1876 99.9732C59.6791 100.482 59.2299 101.083 58.8401 101.778C58.4671 102.473 58.179 103.16 57.9756 103.838C57.7722 104.499 57.6705 105.058 57.6705 105.516C57.6705 106.024 57.84 106.279 58.179 106.279C58.4502 106.279 58.7384 106.126 59.0435 105.821C59.3655 105.516 59.6706 105.135 59.9588 104.677C60.2639 104.202 60.5436 103.728 60.7978 103.253C61.0521 102.762 61.2555 102.338 61.408 101.982C61.4928 101.982 61.5606 101.99 61.6114 102.007C61.6792 102.024 61.7131 102.092 61.7131 102.211C61.6962 102.278 61.6623 102.355 61.6114 102.439C61.5775 102.507 61.5182 102.634 61.4335 102.821C61.2979 103.092 61.1114 103.457 60.8741 103.914C60.6368 104.372 60.3571 104.838 60.0351 105.313C59.713 105.77 59.3655 106.16 58.9926 106.482C58.6197 106.804 58.2298 106.965 57.823 106.965Z" fill="#111111"/>
<path d="M52.4539 93.4636C52.2335 93.7857 51.9878 94.1925 51.7166 94.684C51.4453 95.1756 51.1911 95.6502 50.9538 96.1079C50.7334 96.5655 50.5639 96.913 50.4453 97.1503H52.7844C52.7844 97.2181 52.7505 97.3283 52.6827 97.4809C52.6319 97.6334 52.5217 97.7436 52.3522 97.8114H50.1402C49.9368 98.269 49.6995 98.8199 49.4283 99.464C49.174 100.108 48.9197 100.778 48.6655 101.473C48.4282 102.168 48.2248 102.82 48.0553 103.43C47.9027 104.024 47.8265 104.507 47.8265 104.88C47.8265 105.388 47.8943 105.77 48.0299 106.024C48.1655 106.261 48.4112 106.38 48.7672 106.38C49.2249 106.38 49.6656 106.159 50.0893 105.719C50.5131 105.261 50.9114 104.693 51.2843 104.015C51.6742 103.337 52.0132 102.659 52.3013 101.981C52.5047 101.981 52.6065 102.057 52.6065 102.21C52.42 102.668 52.1912 103.168 51.92 103.71C51.6488 104.253 51.3352 104.778 50.9792 105.286C50.6402 105.778 50.2503 106.185 49.8096 106.507C49.3859 106.812 48.9113 106.965 48.3858 106.965C47.6739 106.965 47.1908 106.77 46.9366 106.38C46.6823 105.973 46.5552 105.456 46.5552 104.829C46.5552 104.371 46.6399 103.82 46.8094 103.176C46.9789 102.515 47.1823 101.837 47.4196 101.142C47.6739 100.447 47.9197 99.8031 48.157 99.2098C48.3943 98.5996 48.5807 98.1334 48.7163 97.8114H47.0891C47.0891 97.6758 47.1484 97.5317 47.2671 97.3792C47.3857 97.2266 47.5129 97.1503 47.6485 97.1503H48.996C49.1316 96.8791 49.2842 96.5401 49.4537 96.1333C49.6401 95.7265 49.8859 95.2773 50.191 94.7857C50.4453 94.3789 50.7673 94.0569 51.1572 93.8196C51.564 93.5823 51.9962 93.4636 52.4539 93.4636Z" fill="#111111"/>
<path d="M43.434 106.889C42.8068 106.889 42.3661 106.712 42.1119 106.356C41.8576 105.983 41.7305 105.559 41.7305 105.084C41.7305 104.83 41.7559 104.576 41.8067 104.322C41.8745 104.05 41.9508 103.805 42.0356 103.584L43.7391 99.2364C43.7899 99.1008 43.8154 98.9821 43.8154 98.8804C43.8154 98.7109 43.773 98.5669 43.6882 98.4482C43.6035 98.3126 43.5442 98.2194 43.5103 98.1685L44.9087 98.1177C45.1629 98.1007 45.3409 98.1346 45.4426 98.2194C45.5612 98.2872 45.6206 98.3719 45.6206 98.4736C45.6206 98.5753 45.5612 98.7618 45.4426 99.033C45.2731 99.4398 45.0443 99.9483 44.7561 100.559C44.468 101.169 44.1798 101.796 43.8916 102.44C43.6204 103.084 43.3831 103.686 43.1797 104.245C42.9933 104.805 42.9 105.237 42.9 105.542C42.9 105.762 42.9509 105.949 43.0526 106.101C43.1712 106.254 43.3662 106.33 43.6374 106.33C43.9933 106.33 44.3408 106.195 44.6798 105.923C45.0358 105.635 45.3663 105.271 45.6714 104.83C45.9765 104.389 46.2562 103.915 46.5105 103.406C46.7817 102.898 47.0105 102.423 47.197 101.982C47.4004 101.982 47.5021 102.059 47.5021 102.211C47.3326 102.635 47.1122 103.118 46.841 103.66C46.5698 104.203 46.2562 104.72 45.9003 105.211C45.5612 105.686 45.1799 106.084 44.7561 106.406C44.3493 106.728 43.9086 106.889 43.434 106.889ZM45.6969 96.5413C45.4765 96.5413 45.2816 96.4565 45.1121 96.287C44.9595 96.1175 44.8832 95.9141 44.8832 95.6768C44.8832 95.3887 45.0019 95.1344 45.2392 94.9141C45.4765 94.6768 45.7392 94.5581 46.0274 94.5581C46.2647 94.5581 46.4681 94.6344 46.6376 94.7869C46.8071 94.9395 46.8919 95.1344 46.8919 95.3717C46.8919 95.6768 46.7732 95.948 46.5359 96.1853C46.2986 96.4226 46.0189 96.5413 45.6969 96.5413Z" fill="#111111"/>
<path d="M30.8866 115C29.2763 115 28.4712 114.339 28.4712 113.017C28.4712 112.39 28.6915 111.83 29.1323 111.339C29.573 110.847 30.0984 110.423 30.7086 110.067C31.5562 109.559 32.3867 109.152 33.2003 108.847C34.014 108.542 34.7937 108.271 35.5395 108.033C36.2853 107.813 36.9803 107.567 37.6244 107.296C37.7769 106.855 37.9041 106.372 38.0058 105.847C38.1075 105.304 38.1837 104.779 38.2346 104.27C38.2854 103.762 38.3109 103.321 38.3109 102.948C38.3109 102.558 38.2854 102.304 38.2346 102.185C38.0481 102.541 37.7939 102.982 37.4718 103.508C37.1667 104.033 36.8023 104.558 36.3785 105.084C35.9717 105.592 35.5395 106.016 35.0818 106.355C34.6242 106.694 34.158 106.864 33.6834 106.864C33.5139 106.864 33.3529 106.838 33.2003 106.787C32.7257 106.584 32.3782 106.296 32.1579 105.923C31.9545 105.55 31.8528 105.126 31.8528 104.652C31.8528 103.889 32.0731 103.067 32.5138 102.185C32.9546 101.304 33.48 100.499 34.0902 99.77C34.5818 99.1768 35.1581 98.7021 35.8192 98.3462C36.4802 97.9902 37.1498 97.8123 37.8278 97.8123C38.6075 97.8123 39.3364 98.075 40.0144 98.6004C40.2686 98.8039 40.3958 99.0242 40.3958 99.2615C40.3958 99.5158 40.2941 99.6429 40.0907 99.6429C39.9212 99.6429 39.8025 99.5327 39.7347 99.3124C39.4974 98.6852 39.116 98.3716 38.5906 98.3716C38.1668 98.3716 37.6837 98.5581 37.1413 98.931C36.5989 99.2869 36.0904 99.7361 35.6158 100.279C35.209 100.736 34.8106 101.262 34.4208 101.855C34.0479 102.448 33.7343 103.033 33.48 103.609C33.2427 104.186 33.1241 104.686 33.1241 105.109C33.1241 105.398 33.1919 105.643 33.3275 105.847C33.4631 106.05 33.675 106.152 33.9631 106.152C34.353 106.152 34.7598 105.965 35.1835 105.592C35.6242 105.22 36.0395 104.762 36.4294 104.219C36.8362 103.677 37.1837 103.126 37.4718 102.567C37.7769 102.007 37.9888 101.541 38.1075 101.168C38.2261 100.779 38.3871 100.541 38.5906 100.457C38.794 100.355 38.9974 100.304 39.2008 100.304C39.4042 100.304 39.5737 100.253 39.7093 100.151C39.7771 100.524 39.8195 100.906 39.8364 101.296C39.8703 101.668 39.8873 102.05 39.8873 102.44C39.8873 103.219 39.8364 103.931 39.7347 104.575C39.6499 105.22 39.4974 105.906 39.277 106.635C39.8873 106.262 40.4127 105.796 40.8534 105.237C41.3111 104.66 41.684 104.084 41.9721 103.508C42.2773 102.914 42.523 102.406 42.7095 101.982C42.9129 101.982 43.0146 102.058 43.0146 102.211C42.7942 102.669 42.5146 103.228 42.1756 103.889C41.8535 104.55 41.4382 105.194 40.9297 105.821C40.4381 106.432 39.8195 106.906 39.0736 107.245C38.7855 108.059 38.3702 108.915 37.8278 109.813C37.3023 110.711 36.6752 111.551 35.9463 112.33C35.2174 113.127 34.4208 113.771 33.5563 114.263C32.6918 114.754 31.8019 115 30.8866 115ZM30.2764 114.491C30.6493 114.491 31.0392 114.407 31.446 114.237C31.8697 114.085 32.2681 113.898 32.641 113.678C33.0139 113.457 33.302 113.271 33.5054 113.118C33.8953 112.813 34.2936 112.432 34.7004 111.974C35.1073 111.517 35.4632 111.076 35.7683 110.652C36.0565 110.245 36.3531 109.813 36.6582 109.355C36.9633 108.915 37.2091 108.474 37.3956 108.033L36.3531 108.364C35.7937 108.533 35.1751 108.737 34.497 108.974C33.836 109.228 33.1749 109.508 32.5138 109.813C31.8528 110.118 31.251 110.449 30.7086 110.805C30.234 111.127 29.8442 111.551 29.5391 112.076C29.217 112.601 29.056 113.059 29.056 113.449C29.056 113.737 29.1577 113.983 29.3611 114.186C29.5475 114.39 29.8526 114.491 30.2764 114.491Z" fill="#111111"/>
<path d="M28.8837 106.889C28.2565 106.889 27.8158 106.712 27.5616 106.356C27.3073 105.983 27.1802 105.559 27.1802 105.084C27.1802 104.83 27.2056 104.576 27.2565 104.322C27.3243 104.05 27.4005 103.805 27.4853 103.584L29.1888 99.2364C29.2396 99.1008 29.2651 98.9821 29.2651 98.8804C29.2651 98.7109 29.2227 98.5669 29.1379 98.4482C29.0532 98.3126 28.9939 98.2194 28.96 98.1685L30.3584 98.1177C30.6126 98.1007 30.7906 98.1346 30.8923 98.2194C31.011 98.2872 31.0703 98.3719 31.0703 98.4736C31.0703 98.5753 31.011 98.7618 30.8923 99.033C30.7228 99.4398 30.494 99.9483 30.2058 100.559C29.9177 101.169 29.6295 101.796 29.3413 102.44C29.0701 103.084 28.8328 103.686 28.6294 104.245C28.443 104.805 28.3498 105.237 28.3498 105.542C28.3498 105.762 28.4006 105.949 28.5023 106.101C28.621 106.254 28.8159 106.33 29.0871 106.33C29.443 106.33 29.7905 106.195 30.1295 105.923C30.4855 105.635 30.816 105.271 31.1211 104.83C31.4262 104.389 31.7059 103.915 31.9602 103.406C32.2314 102.898 32.4602 102.423 32.6467 101.982C32.8501 101.982 32.9518 102.059 32.9518 102.211C32.7823 102.635 32.5619 103.118 32.2907 103.66C32.0195 104.203 31.7059 104.72 31.35 105.211C31.011 105.686 30.6296 106.084 30.2058 106.406C29.799 106.728 29.3583 106.889 28.8837 106.889ZM31.1466 96.5413C30.9262 96.5413 30.7313 96.4565 30.5618 96.287C30.4092 96.1175 30.3329 95.9141 30.3329 95.6768C30.3329 95.3887 30.4516 95.1344 30.6889 94.9141C30.9262 94.6768 31.1889 94.5581 31.4771 94.5581C31.7144 94.5581 31.9178 94.6344 32.0873 94.7869C32.2568 94.9395 32.3416 95.1344 32.3416 95.3717C32.3416 95.6768 32.2229 95.948 31.9856 96.1853C31.7483 96.4226 31.4686 96.5413 31.1466 96.5413Z" fill="#111111"/>
<path d="M4.11894 107.982C3.42397 107.982 2.76291 107.88 2.13574 107.677C1.50858 107.473 0.991596 107.168 0.584787 106.761C0.194929 106.355 0 105.846 0 105.236C0 104.609 0.271206 104.041 0.813617 103.532C1.37298 103.024 2.16117 102.77 3.17819 102.77C4.24606 102.77 5.25461 103.015 6.20383 103.507C7.17 103.982 8.18702 104.499 9.25489 105.058C10.1533 104.193 10.9499 103.193 11.6449 102.058C12.3568 100.905 13.0348 99.6932 13.6789 98.4219C14.34 97.1506 15.018 95.8878 15.713 94.6335C16.4079 93.3622 17.1877 92.1842 18.0521 91.0993C18.2047 90.9129 18.3572 90.7264 18.5098 90.54C18.6623 90.3366 18.8234 90.1416 18.9929 89.9552C18.0776 89.4128 17.0944 88.9975 16.0435 88.7093C14.9926 88.4042 13.9078 88.2517 12.789 88.2517C11.3991 88.2517 10.1109 88.4297 8.92436 88.7856C7.73784 89.1416 6.70386 89.6247 5.82245 90.2349C4.95798 90.8281 4.27996 91.5061 3.7884 92.2689C3.29684 93.0147 3.05106 93.786 3.05106 94.5826C3.05106 95.2945 3.19514 95.8878 3.4833 96.3624C3.7884 96.8201 4.16979 97.1591 4.62745 97.3794C5.08511 97.5998 5.53429 97.71 5.975 97.71C6.56826 97.71 7.07677 97.5998 7.50053 97.3794C7.92429 97.1421 8.27177 96.854 8.54298 96.515C8.81418 96.176 9.01759 95.8454 9.15319 95.5234C9.28879 95.2013 9.36507 94.9386 9.38202 94.7352C9.38202 94.6165 9.4583 94.5572 9.61085 94.5572C9.84816 94.5572 9.94138 94.7013 9.89053 94.9894C9.80578 95.6675 9.55152 96.2607 9.12777 96.7692C8.70401 97.2608 8.1955 97.6506 7.60223 97.9388C7.00897 98.21 6.39876 98.3456 5.7716 98.3456C5.02578 98.3456 4.34777 98.21 3.73755 97.9388C3.12734 97.6506 2.63578 97.2269 2.26287 96.6675C1.90691 96.0912 1.72894 95.3878 1.72894 94.5572C1.72894 93.4554 2.02557 92.4723 2.61883 91.6078C3.21209 90.7264 4.02571 89.9806 5.05968 89.3704C6.09365 88.7602 7.28018 88.2941 8.61926 87.972C9.95833 87.6499 11.3737 87.4889 12.8653 87.4889C14.0179 87.4889 15.179 87.633 16.3486 87.9211C17.5182 88.1923 18.6284 88.6076 19.6794 89.167C20.1201 88.6754 20.5693 88.2432 21.0269 87.8703C21.5015 87.4804 21.9846 87.1838 22.4762 86.9804C22.6965 86.8956 22.8745 86.8533 23.0101 86.8533C23.1118 86.8533 23.1627 86.8787 23.1627 86.9295C23.1627 87.0143 22.9677 87.2262 22.5779 87.5652C22.3575 87.7686 22.0948 88.0822 21.7897 88.5059C21.4846 88.9127 21.171 89.3619 20.8489 89.8535C21.866 90.5145 22.7643 91.3197 23.544 92.2689C24.3407 93.2012 24.9679 94.2691 25.4255 95.4725C25.8832 96.6591 26.112 97.9812 26.112 99.4389C26.112 100.863 25.8662 102.109 25.3747 103.176C24.8831 104.227 24.2136 105.1 23.3661 105.795C22.5185 106.49 21.5439 107.007 20.4421 107.346C19.3404 107.702 18.1793 107.88 16.9588 107.88C15.518 107.88 14.179 107.685 12.9416 107.295C11.7212 106.906 10.5855 106.465 9.53457 105.973C8.70401 106.634 7.83954 107.134 6.94117 107.473C6.05975 107.812 5.11901 107.982 4.11894 107.982ZM19.12 92.574C18.764 93.1334 18.3318 93.8453 17.8233 94.7098C17.3148 95.5573 16.7469 96.4811 16.1198 97.4811C15.4926 98.4812 14.84 99.4813 14.162 100.481C13.484 101.481 12.7975 102.422 12.1026 103.304C11.4245 104.168 10.7635 104.897 10.1194 105.49C11.0177 105.931 12.0093 106.312 13.0941 106.634C14.179 106.956 15.4079 107.117 16.7808 107.117C18.3403 107.117 19.6963 106.795 20.8489 106.151C22.0016 105.49 22.8999 104.6 23.544 103.482C24.1882 102.346 24.5102 101.066 24.5102 99.6423C24.5102 97.7947 24.1204 96.1166 23.3406 94.6081C22.5609 93.0825 21.5185 91.8113 20.2133 90.7942C19.9929 91.1502 19.7895 91.4892 19.6031 91.8112C19.4166 92.1164 19.2556 92.3706 19.12 92.574ZM4.11894 107.194C4.9834 107.245 5.82245 107.092 6.63606 106.736C7.46663 106.363 8.15312 105.965 8.69553 105.541C7.67851 105.049 6.73777 104.6 5.8733 104.193C5.02578 103.787 4.23759 103.583 3.50872 103.583C2.91546 103.583 2.4578 103.761 2.13574 104.117C1.81369 104.456 1.65266 104.838 1.65266 105.261C1.65266 105.804 1.86454 106.253 2.2883 106.609C2.72901 106.965 3.33922 107.16 4.11894 107.194Z" fill="#111111"/>
<path fill-rule="evenodd" clip-rule="evenodd" d="M2.04619 83.6434C2.04846 83.2422 2.37553 82.9188 2.77673 82.9211L129.904 83.6393C130.306 83.6416 130.629 83.9687 130.627 84.3699C130.624 84.7711 130.297 85.0945 129.896 85.0922L2.76852 84.374C2.36732 84.3717 2.04392 84.0446 2.04619 83.6434Z" fill="#111111"/>
</svg>
